<!DOCTYPE svg PUBLIC "-//W3C//DTD SVG 1.1//EN" "http://www.w3.org/Graphics/SVG/1.1/DTD/svg11.dtd">
<!-- Uploaded to: SVG Repo, www.svgrepo.com, Transformed by: SVG Repo Mixer Tools -->
<svg version="1.1" id="Layer_1" xmlns="http://www.w3.org/2000/svg" xmlns:xlink="http://www.w3.org/1999/xlink" viewBox="0 0 511.999 511.999" xml:space="preserve" width="800px" height="800px" fill="#000000">
<g id="SVGRepo_bgCarrier" stroke-width="0"/>
<g id="SVGRepo_tracerCarrier" stroke-linecap="round" stroke-linejoin="round"/>
<g id="SVGRepo_iconCarrier"> <g> <path style="fill:#333E48;" d="M64.291,274.163c0,8.849-7.24,16.089-16.089,16.089H16.089C7.24,290.253,0,283.012,0,274.163 v-61.516c0-8.849,7.24-16.089,16.089-16.089h32.112c8.849,0,16.089,7.24,16.089,16.089v61.516H64.291z"/> <rect x="78.706" y="101.522" style="fill:#333E48;" width="16.363" height="38.54"/> <rect x="296.802" y="101.522" style="fill:#333E48;" width="16.363" height="38.54"/> </g> <path style="fill:#7D868C;" d="M327.509,109.704H64.361c-4.518,0-8.181-3.662-8.181-8.181c0-4.519,3.663-8.181,8.181-8.181H327.51 c4.518,0,8.181,3.662,8.181,8.181C335.69,106.041,332.027,109.704,327.509,109.704z"/> <path style="fill:#FFCE00;" d="M459.136,225.594H358.341v-65.458c0-15.014-12.284-27.298-27.299-27.298H59.482 c-15.015,0-27.299,12.285-27.299,27.298v171.844c0,15.014,12.284,27.298,27.299,27.298h399.654 c15.015,0,27.299-12.285,27.299-27.298v-79.086C486.435,237.879,474.15,225.594,459.136,225.594z"/> <path style="opacity:0.2;enable-background:new ;" d="M375.282,240.892c0,4.519,3.663,8.181,8.181,8.181 c4.518,0,8.181-3.662,8.181-8.181v-15.297h-16.363V240.892z M404.779,225.594v15.297c0,4.519,3.663,8.181,8.181,8.181 c4.518,0,8.181-3.662,8.181-8.181v-15.297H404.779z"/> <path style="opacity:0.2;enable-background:new ;" d="M212.726,359.278c0-39.883-32.332-72.216-72.216-72.216 s-72.216,32.333-72.216,72.216H212.726z"/> <circle style="fill:#333E48;" cx="140.514" cy="359.282" r="59.376"/> <circle style="fill:#7D868C;" cx="140.514" cy="359.282" r="29.339"/> <path style="fill:#333E48;" d="M358.341,225.594h-35.389c-3,0-5.454-2.454-5.454-5.454v-47.805c0-3,2.454-5.454,5.454-5.454h35.389 V225.594z"/> <path style="opacity:0.2;enable-background:new ;" d="M322.952,166.88c-3,0-5.454,2.454-5.454,5.454v7.636 c0-3,2.454-5.454,5.454-5.454h35.389v-7.636H322.952z"/> <path style="opacity:0.2;fill:#FFFFFF;enable-background:new ;" d="M336.631,166.88c-1.466,3.105-2.289,6.571-2.289,10.233 c0,13.254,10.745,23.999,23.999,23.999V166.88H336.631z"/> <path style="fill:#333E48;" d="M195.934,172.335c0-3,2.454-5.454,5.454-5.454h84.997c3,0,5.454,2.454,5.454,5.454v47.805 c0,3-2.454,5.454-5.454,5.454h-84.997c-3,0-5.454-2.454-5.454-5.454L195.934,172.335L195.934,172.335z"/> <path style="opacity:0.2;enable-background:new ;" d="M286.384,166.88h-84.997c-3,0-5.454,2.454-5.454,5.454v7.636 c0-3,2.454-5.454,5.454-5.454h84.997c3,0,5.454,2.454,5.454,5.454v-7.636C291.839,169.335,289.384,166.88,286.384,166.88z"/> <rect x="451.737" y="252.89" style="fill:#009BDE;" width="34.699" height="29.671"/> <path style="fill:#FFFFFF;" d="M460.476,252.894h-9.974c-2.95,0-5.364,2.413-5.364,5.363v18.949c0,2.95,2.413,5.363,5.364,5.363 h9.974V252.894z"/> <g> <path style="fill:#7D868C;" d="M499.485,315.637c6.912,0,12.514,5.603,12.514,12.514c0,6.912-5.603,12.514-12.514,12.514h-55.061 c-6.911,0-12.514-5.603-12.514-12.514s5.603-12.514,12.514-12.514L499.485,315.637L499.485,315.637z"/> <path style="fill:#7D868C;" d="M499.485,269.417c6.912,0,12.514,5.604,12.514,12.514c0,6.912-5.603,12.514-12.514,12.514h-55.061 c-6.911,0-12.514-5.603-12.514-12.514c0-6.911,5.603-12.514,12.514-12.514L499.485,269.417L499.485,269.417z"/> <rect x="478.256" y="281.929" style="fill:#7D868C;" width="16.363" height="48.009"/> <rect x="449.567" y="281.929" style="fill:#7D868C;" width="16.363" height="48.009"/> </g> <path style="opacity:0.2;enable-background:new ;" d="M281.205,261.075h-32.531c-4.518,0-8.181-3.662-8.181-8.181 s3.663-8.181,8.181-8.181h32.531c4.518,0,8.181,3.662,8.181,8.181C289.386,257.412,285.723,261.075,281.205,261.075z"/> <path style="fill:#333E48;" d="M66.436,172.335c0-3,2.454-5.454,5.454-5.454h84.996c3,0,5.454,2.454,5.454,5.454v47.805 c0,3-2.454,5.454-5.454,5.454H71.89c-3,0-5.454-2.454-5.454-5.454V172.335z"/> <path style="opacity:0.2;enable-background:new ;" d="M156.886,166.88H71.89c-3,0-5.454,2.454-5.454,5.454v7.636 c0-3,2.454-5.454,5.454-5.454h84.996c3,0,5.454,2.454,5.454,5.454v-7.636C162.34,169.335,159.886,166.88,156.886,166.88z"/> <path style="opacity:0.2;fill:#FFFFFF;enable-background:new ;" d="M100.001,166.88H71.89c-3,0-5.454,2.454-5.454,5.454v21.641 c3.089,1.449,6.536,2.262,10.174,2.262c13.254,0,23.999-10.745,23.999-23.999C100.609,170.396,100.394,168.604,100.001,166.88z"/> <path style="opacity:0.2;enable-background:new ;" d="M151.706,261.075h-32.531c-4.518,0-8.181-3.662-8.181-8.181 s3.663-8.181,8.181-8.181h32.531c4.518,0,8.181,3.662,8.181,8.181C159.888,257.412,156.225,261.075,151.706,261.075z"/> <path style="fill:#7D868C;" d="M49.336,315.637c6.911,0,12.514,5.603,12.514,12.514c0,6.912-5.603,12.514-12.514,12.514H26.453 c-6.911,0-12.513-5.603-12.513-12.514s5.603-12.514,12.513-12.514L49.336,315.637L49.336,315.637z"/> <path style="opacity:0.2;enable-background:new ;" d="M423.299,359.278c0-39.883-32.332-72.216-72.216-72.216 s-72.216,32.333-72.216,72.216H423.299z"/> <circle style="fill:#333E48;" cx="351.083" cy="359.282" r="59.376"/> <circle style="fill:#7D868C;" cx="351.083" cy="359.282" r="29.339"/> <path style="fill:#FFFFFF;" d="M32.183,275.752h9.974c2.95,0,5.364,2.413,5.364,5.363v18.949c0,2.949-2.413,5.363-5.364,5.363 h-9.974V275.752z"/> </g>
</svg>